<svg width="45" height="45" viewBox="0 0 45 45" fill="none" xmlns="http://www.w3.org/2000/svg">
<path d="M22.1594 23.8071C24.8127 23.8071 26.9633 21.6559 26.9633 19.0029C26.9633 16.3496 24.8127 14.1987 22.1594 14.1987C19.5058 14.1987 17.3552 16.3496 17.3552 19.0029C17.3584 21.6547 19.5073 23.8036 22.1594 23.8071ZM22.1594 16.0665C23.7862 16.0665 25.1048 17.3852 25.1048 19.0122C25.1048 20.6389 23.7862 21.9579 22.1594 21.9579C20.5324 21.9579 19.2137 20.6389 19.2137 19.0122C19.214 17.3854 20.5326 16.0671 22.1594 16.0665Z" fill="#4678C5"/>
<path d="M22.1594 25.582C20.1938 25.5675 18.3074 26.3564 16.9371 27.7657C15.5432 29.1874 14.7812 31.1203 14.7812 33.2203C14.7827 33.7329 15.1977 34.1481 15.7105 34.1496H28.608C29.1208 34.1481 29.5358 33.7329 29.5373 33.2203C29.5373 31.1203 28.7753 29.1874 27.3814 27.7657C26.0114 26.3564 24.1247 25.5675 22.1594 25.582ZM16.7048 32.2911C16.8636 31.0761 17.4116 29.9453 18.2659 29.0666C19.2942 28.0262 20.6964 27.4405 22.1594 27.4405C23.6221 27.4405 25.0244 28.0262 26.0526 29.0666C26.9052 29.9462 27.4526 31.0767 27.6137 32.2911H16.7048Z" fill="#4678C5"/>
<path d="M33.3103 1.41248H11.0085C8.44293 1.41364 6.36318 3.4931 6.3623 6.05867V38.9538C6.36318 41.5193 8.44293 43.5988 11.0085 43.6H33.3103C35.8758 43.5988 37.9553 41.5193 37.9565 38.9538V6.05867C37.9553 3.4931 35.8758 1.41364 33.3103 1.41248ZM36.098 38.9538C36.0936 40.4914 34.8479 41.7371 33.3103 41.7415H11.0085C9.4709 41.7371 8.22514 40.4914 8.22078 38.9538V6.05867C8.22514 4.52107 9.4709 3.27531 11.0085 3.27095H33.3103C34.8479 3.27531 36.0936 4.52107 36.098 6.05867V38.9538Z" fill="#4678C5"/>
<path d="M18.2845 7.64767H25.7184C26.2315 7.64767 26.6476 7.23154 26.6476 6.71842C26.6476 6.20531 26.2315 5.78918 25.7184 5.78918H18.2845C17.7711 5.78918 17.3552 6.20531 17.3552 6.71842C17.3552 7.23154 17.7711 7.64767 18.2845 7.64767Z" fill="#4678C5"/>
</svg>
