<svg width="45" height="45" viewBox="0 0 45 45" fill="none" xmlns="http://www.w3.org/2000/svg">
<path d="M30.5602 45C30.558 45 30.5558 45 30.5539 45H5.63772C5.23391 45 4.90662 44.6727 4.90662 44.2689V0.731101C4.90662 0.32729 5.23391 0 5.63772 0H39.3622C39.766 0 40.0933 0.32729 40.0933 0.731101V35.2269C40.0935 35.2569 40.0918 35.2866 40.0884 35.3161C40.0884 35.3161 40.0884 35.3163 40.0884 35.3166C40.0884 35.3171 40.0884 35.3175 40.0882 35.318C40.0882 35.3183 40.0882 35.3185 40.0882 35.3188C40.0882 35.3192 40.0882 35.3197 40.0879 35.3205C40.0879 35.321 40.0879 35.3214 40.0879 35.3219C40.0843 35.3519 40.0787 35.3814 40.0716 35.4104C40.0716 35.4106 40.0714 35.4109 40.0714 35.4114C40.0714 35.4116 40.0711 35.4119 40.0711 35.4121C40.0711 35.4126 40.0709 35.4131 40.0709 35.4136V35.4138C40.0407 35.5315 39.9809 35.6421 39.8942 35.734C39.8937 35.7345 39.8932 35.735 39.8927 35.7355C39.8922 35.736 39.8918 35.7365 39.8913 35.7369C39.8908 35.7374 39.8905 35.7377 39.89 35.7382C39.89 35.7384 39.8898 35.7384 39.8896 35.7387C39.8893 35.7389 39.8891 35.7394 39.8886 35.7396C39.8886 35.7396 39.8883 35.7399 39.8881 35.7401C39.8876 35.7406 39.8871 35.7411 39.8866 35.7416L31.0849 44.7785C31.0839 44.7794 31.0827 44.7807 31.0817 44.7819C31.0813 44.7824 31.0808 44.7829 31.08 44.7836C31.0795 44.7841 31.0791 44.7846 31.0786 44.7851C31.0786 44.7851 31.0786 44.7851 31.0783 44.7853C31.0781 44.7855 31.0776 44.786 31.0771 44.7865C31.0771 44.7865 31.0769 44.7868 31.0766 44.7868C31.0764 44.7872 31.0759 44.7875 31.0756 44.788C31.0754 44.7882 31.0752 44.7885 31.0749 44.7885C31.0747 44.7887 31.0744 44.789 31.0742 44.7892C31.0739 44.7894 31.0737 44.7897 31.0732 44.7902C31.0732 44.7902 31.0732 44.7904 31.073 44.7904C30.9774 44.884 30.8602 44.9476 30.7354 44.9781C30.7345 44.9786 30.734 44.9783 30.7332 44.9786C30.733 44.9788 30.7323 44.9788 30.7313 44.979C30.7306 44.979 30.7301 44.9793 30.7294 44.9795C30.7289 44.9798 30.7279 44.9795 30.7274 44.98C30.7267 44.98 30.7255 44.9805 30.7255 44.9805C30.7247 44.9805 30.7233 44.9807 30.7233 44.9807C30.7167 44.9822 30.7101 44.9837 30.7033 44.9849C30.7025 44.9849 30.7018 44.9851 30.7011 44.9854C30.7013 44.9861 30.6999 44.9856 30.6989 44.9856C30.6984 44.9854 30.6977 44.9856 30.6969 44.9859C30.6955 44.9861 30.6955 44.9861 30.6947 44.9864C30.6943 44.9864 30.6935 44.9866 30.6928 44.9866C30.6923 44.9866 30.6916 44.9868 30.6906 44.9868C30.6899 44.9871 30.6894 44.9873 30.6887 44.9871C30.6453 44.9963 30.6029 45 30.5602 45ZM6.36882 43.5378H29.8294V35.232C29.8294 34.8282 30.1567 34.5009 30.5605 34.5009H38.6311V1.4622H6.36882V43.5378ZM31.2916 35.9631V42.4704L37.6295 35.9631H31.2916ZM32.4296 31.971H9.91807C9.51426 31.971 9.18697 31.6438 9.18697 31.2399C9.18697 30.8361 9.51426 30.5088 9.91807 30.5088H32.4299C32.8337 30.5088 33.161 30.8361 33.161 31.2399C33.161 31.6438 32.8335 31.971 32.4296 31.971ZM34.9612 28.6709H9.91807C9.51426 28.6709 9.18697 28.3436 9.18697 27.9398C9.18697 27.5359 9.51426 27.2087 9.91807 27.2087H34.9612C35.365 27.2087 35.6923 27.5359 35.6923 27.9398C35.6923 28.3436 35.365 28.6709 34.9612 28.6709ZM14.8576 24.0756C14.8245 24.0756 14.7913 24.0735 14.758 24.0688L9.17673 23.3009C8.97568 23.2731 8.7951 23.1632 8.67837 22.997C8.56163 22.8308 8.51923 22.6239 8.56115 22.4253L10.2997 14.2043C9.06512 12.9768 8.35766 11.2348 8.50875 9.36784C8.78121 6.00356 11.7383 3.48735 15.104 3.76054C18.4683 4.033 20.9838 6.99152 20.7113 10.3558C20.587 11.8906 19.9034 13.249 18.8775 14.2465L20.5527 20.7891C20.6038 20.9887 20.5683 21.2007 20.4549 21.3728C20.3416 21.5448 20.1608 21.6611 19.9573 21.6927L15.6114 22.3707L15.5887 23.3611C15.5839 23.5695 15.4905 23.7659 15.3319 23.9009C15.1988 24.0145 15.0304 24.0756 14.8576 24.0756ZM10.1542 21.9591L14.1455 22.5084L14.2949 15.9748C14.2355 15.9716 14.176 15.9677 14.1163 15.9629C13.1966 15.8883 12.3402 15.6131 11.5872 15.1838L10.1542 21.9591ZM15.6516 20.6058L15.714 20.8749L18.9364 20.3721L17.611 15.1947C17.0417 15.5162 16.4178 15.7486 15.7598 15.8749L15.6516 20.6058ZM14.6022 5.20227C13.4988 5.20227 12.4421 5.58951 11.592 6.31208C10.6438 7.11824 10.0665 8.24536 9.96608 9.48579C9.75869 12.0464 11.6734 14.2984 14.2342 14.5058C16.7943 14.7141 19.0466 12.7984 19.254 10.2379C19.4614 7.67729 17.5469 5.42526 14.9861 5.21787C14.8576 5.20739 14.7297 5.20227 14.6022 5.20227ZM34.9612 15.4036H24.6307C24.2269 15.4036 23.8996 15.0763 23.8996 14.6725C23.8996 14.2687 24.2269 13.9414 24.6307 13.9414H34.9612C35.365 13.9414 35.6923 14.2687 35.6923 14.6725C35.6923 15.0763 35.365 15.4036 34.9612 15.4036ZM33.4858 11.5122H24.6307C24.2269 11.5122 23.8996 11.1849 23.8996 10.7811C23.8996 10.3772 24.2269 10.05 24.6307 10.05H33.4856C33.8894 10.05 34.2167 10.3772 34.2167 10.7811C34.2167 11.1849 33.8894 11.5122 33.4858 11.5122ZM34.9612 7.38436H24.6307C24.2269 7.38436 23.8996 7.05707 23.8996 6.65326C23.8996 6.24945 24.2269 5.92216 24.6307 5.92216H34.9612C35.365 5.92216 35.6923 6.24945 35.6923 6.65326C35.6923 7.05707 35.365 7.38436 34.9612 7.38436Z" fill="#4678C5"/>
</svg>
