<svg width="46" height="46" viewBox="0 0 46 46" fill="none" xmlns="http://www.w3.org/2000/svg">
<g clip-path="url(#clip0)">
<path d="M40.0975 11.1473C40.1289 11.1509 40.1601 11.1525 40.1913 11.1525C40.4147 11.1525 40.6307 11.064 40.7905 10.9043L45.3605 6.3344C45.5929 6.10187 45.67 5.75585 45.5581 5.44657C45.4461 5.13729 45.1653 4.92074 44.8378 4.89098L41.4208 4.58038L41.1101 1.16337C41.0804 0.835899 40.8638 0.555145 40.5546 0.443249C40.2453 0.331266 39.8993 0.408277 39.6666 0.640811L35.0967 5.21077C34.9147 5.39279 34.8251 5.64784 34.8536 5.90378L35.2581 9.5444L34.4023 10.4002C31.2417 7.509 27.0962 5.67849 22.5344 5.47572V3.86635C22.5344 3.39828 22.1549 3.01879 21.6868 3.01879C21.2187 3.01879 20.8392 3.39828 20.8392 3.86635V5.47545C11.1135 5.90784 3.2805 13.7409 2.84802 23.4667H1.23892C0.770848 23.4667 0.391357 23.8462 0.391357 24.3142C0.391357 24.7823 0.770848 25.1618 1.23892 25.1618H2.84802C3.2805 34.8876 11.1135 42.7205 20.8392 43.153V44.7621C20.8392 45.2302 21.2187 45.6097 21.6868 45.6097C22.1549 45.6097 22.5344 45.2302 22.5344 44.7621V43.153C32.2601 42.7206 40.0931 34.8876 40.5256 25.1618H42.1347C42.6028 25.1618 42.9823 24.7823 42.9823 24.3142C42.9823 23.8462 42.6028 23.4667 42.1347 23.4667H40.5256C40.3228 18.9048 38.4923 14.7593 35.6012 11.5985L36.457 10.7427L40.0975 11.1473ZM39.5858 3.11902L39.7966 5.4373C39.8337 5.84478 40.1564 6.16758 40.5639 6.20467L42.8822 6.41539L39.8798 9.41767L36.9131 9.08807L36.5836 6.12139L39.5858 3.11902ZM38.8293 23.4667H37.6352C37.1671 23.4667 36.7877 23.8462 36.7877 24.3142C36.7877 24.7823 37.1671 25.1618 37.6352 25.1618H38.8293C38.3997 33.9529 31.3254 41.0271 22.5345 41.4567V40.2626C22.5345 39.7946 22.155 39.4151 21.6869 39.4151C21.2188 39.4151 20.8393 39.7946 20.8393 40.2626V41.4567C12.0483 41.0272 4.97403 33.9528 4.54438 25.1619H5.73849C6.20656 25.1619 6.58605 24.7824 6.58605 24.3143C6.58605 23.8463 6.20656 23.4668 5.73849 23.4668H4.54438C4.97403 14.6759 12.0483 7.60146 20.8392 7.1719V8.36592C20.8392 8.83399 21.2187 9.21348 21.6868 9.21348C22.1549 9.21348 22.5344 8.83399 22.5344 8.36592V7.1719C26.6292 7.37202 30.3514 9.01371 33.2033 11.5991L30.6529 14.1495C28.2611 12.0371 25.1213 10.753 21.6867 10.753C14.209 10.753 8.12539 16.8365 8.12539 24.3143C8.12539 31.7921 14.209 37.8757 21.6867 37.8757C29.1645 37.8757 35.2481 31.7921 35.2481 24.3143C35.2481 20.8798 33.9639 17.74 31.8517 15.348L34.4021 12.7977C36.9876 15.6496 38.6292 19.3719 38.8293 23.4667ZM21.0875 24.9136C21.2531 25.0791 21.4699 25.1619 21.6868 25.1619C21.9037 25.1619 22.1207 25.0791 22.2861 24.9136L26.8891 20.3106C27.7447 21.4199 28.2555 22.8083 28.2555 24.3143C28.2555 27.9364 25.3088 30.8831 21.6867 30.8831C18.0646 30.8831 15.1179 27.9364 15.1179 24.3143C15.1179 20.6922 18.0646 17.7455 21.6867 17.7455C23.1928 17.7455 24.5811 18.2563 25.6904 19.1119L21.0874 23.7149C20.7566 24.046 20.7566 24.5826 21.0875 24.9136ZM21.6869 16.0505C17.1301 16.0505 13.423 19.7577 13.423 24.3144C13.423 28.8711 17.1301 32.5783 21.6869 32.5783C26.2437 32.5783 29.9508 28.8711 29.9508 24.3144C29.9508 22.3407 29.2544 20.5271 28.0957 19.1043L30.6517 16.5483C32.4584 18.6311 33.5531 21.3472 33.5531 24.3143C33.5531 30.8573 28.23 36.1804 21.687 36.1804C15.144 36.1804 9.82086 30.8573 9.82086 24.3143C9.82086 17.7713 15.144 12.4481 21.687 12.4481C24.654 12.4481 27.3703 13.5429 29.4531 15.3495L26.8971 17.9056C25.4742 16.7469 23.6607 16.0505 21.6869 16.0505Z" fill="#4678C5"/>
</g>
<defs>
<clipPath id="clip0">
<rect width="45.2174" height="45.2174" fill="white" transform="translate(0.391357 0.391357)"/>
</clipPath>
</defs>
</svg>
