<svg width="21" height="21" viewBox="0 0 21 21" fill="none" xmlns="http://www.w3.org/2000/svg">
<path d="M18.7459 13.9915L10.761 6.00655C10.2019 5.4293 9.51941 5.14072 8.71317 5.14072C7.96185 5.14072 7.32524 5.40181 6.8029 5.9241C6.28043 6.44628 6.01938 7.08313 6.01938 7.8345C6.01938 8.64079 6.30801 9.32342 6.88522 9.88229L12.5201 15.5171C12.6117 15.6087 12.7127 15.6545 12.8226 15.6545C12.9692 15.6545 13.1845 15.5123 13.4683 15.2284C13.7523 14.9445 13.8941 14.729 13.8941 14.5824C13.8941 14.4727 13.8486 14.3718 13.7569 14.2801L8.12219 8.64531C7.89316 8.39789 7.77864 8.12765 7.77864 7.8345C7.77864 7.56864 7.86562 7.3488 8.03973 7.17474C8.21375 7.00063 8.43378 6.91364 8.6995 6.91364C9.01099 6.91364 9.2858 7.02344 9.52413 7.24333L17.5088 15.2283C18.0864 15.8053 18.375 16.4695 18.375 17.2207C18.375 17.8075 18.1824 18.2929 17.7978 18.6776C17.4127 19.0624 16.9273 19.2552 16.3407 19.2552C15.5894 19.2552 14.9252 18.9662 14.3483 18.389L3.6831 7.71045C2.98676 7.01415 2.63877 6.1849 2.63877 5.22284C2.63877 4.25158 2.97309 3.42233 3.642 2.73523C4.31081 2.04822 5.13077 1.70457 6.10208 1.70457C7.03651 1.70457 7.86562 2.05732 8.58946 2.76257L16.918 11.1048C17.0096 11.1965 17.1149 11.242 17.2341 11.242C17.3807 11.242 17.5939 11.1023 17.8731 10.8229C18.1527 10.5435 18.292 10.3305 18.292 10.184C18.292 10.0742 18.2464 9.97326 18.1549 9.88166L9.8401 1.55308C8.78648 0.517759 7.53593 0 6.08826 0C4.63145 0 3.39919 0.508613 2.39135 1.5256C1.38341 2.54263 0.879517 3.7796 0.879517 5.23632C0.879517 6.66559 1.39708 7.90709 2.43241 8.96075L13.1112 19.6258C14.0274 20.5417 15.1038 21 16.3407 21C17.4127 21 18.3108 20.638 19.0344 19.9141C19.7583 19.1906 20.1205 18.2924 20.1205 17.2202C20.1202 15.9651 19.6619 14.8888 18.7459 13.9915Z" fill="black"/>
</svg>
