<svg width="81" height="58" viewBox="0 0 81 58" fill="none" xmlns="http://www.w3.org/2000/svg">
<path d="M72.5062 20.2657L72.7182 19.8304C72.7182 19.8304 71.7695 17.168 69.1654 14.2931L70.4372 13.1391L68.2167 10.3249L67.4698 10.5476L62.9616 5.99223L60.5123 8.01682V8.98865L59.032 10.2034V10.8243L55.9368 12.9839L54.3758 5.31739L48.6159 2.05097L43.9327 1.34912H40.38H36.8272L32.144 2.05097L26.3843 5.31733L24.8232 12.9838L21.728 10.8242V10.2033L20.2477 8.98858V8.01679L17.7984 5.9922L13.2902 10.5476L12.5433 10.3248L10.3228 13.139L11.5946 14.2931C8.99057 17.168 8.04183 19.8303 8.04183 19.8303L8.25379 20.2656C2.996 22.6421 0.761353 28.2089 0.761353 28.2089C7.5708 24.8885 8.76852 20.7718 8.76852 20.7718L9.17225 20.9743C10.1816 20.7111 11.5542 19.638 11.5542 19.638L14.1515 16.4527L15.1877 17.303L17.5562 14.6845L17.1794 14.0501L18.3771 14.455L18.8616 14.2121L21.4454 16.3987L19.9599 17.8238C20.0079 23.8238 20.841 28.9847 22.145 33.4046L22.1405 33.3908L12.0791 43.8119L13.2499 45.1481L11.2313 46.8488L12.9673 49.2783L13.5729 48.7924L13.8555 49.2783L13.5325 49.7642L15.43 51.5863L17.166 49.8047L17.933 50.6955L19.3057 50.6146L20.2746 48.9139L21.0821 49.4808L22.6162 48.0231L21.9703 46.4844L26.3095 43.1456L26.3093 43.1451C32.3042 53.4332 40.38 57.0123 40.38 57.0123C40.38 57.0123 48.4559 53.4332 54.4508 43.1451L54.4505 43.1456L58.7898 46.4844L58.1439 48.0231L59.678 49.4808L60.4855 48.9139L61.4544 50.6146L62.827 50.6955L63.5941 49.8047L65.3301 51.5863L67.2276 49.7642L66.9047 49.2783L67.1872 48.7924L67.7928 49.2783L69.5288 46.8488L67.5102 45.1481L68.681 43.8119L58.6196 33.3908L58.6152 33.4044C59.9191 28.9846 60.7521 23.8238 60.8002 17.8238L59.3147 16.3987L61.8985 14.2121L62.3829 14.455L63.5807 14.0501L63.2039 14.6845L65.5724 17.303L66.6086 16.4527L69.2059 19.638C69.2059 19.638 70.5785 20.7111 71.5878 20.9743L71.9916 20.7718C71.9916 20.7718 73.1893 24.8885 79.9987 28.2089C79.9986 28.2089 77.764 22.6421 72.5062 20.2657ZM23.5518 37.476L18.7704 41.1933L18.6059 40.7884L18.9827 40.6265L23.0425 36.1395L23.0393 36.1295C23.2061 36.5895 23.3782 37.0402 23.5548 37.4822L23.5518 37.476ZM61.7773 40.6265L62.1541 40.7884L61.9896 41.1933L57.2082 37.476L57.2052 37.4822C57.3818 37.0402 57.5539 36.5894 57.7208 36.1294L57.7175 36.1395L61.7773 40.6265Z" fill="white"/>
<path d="M34.8625 14.9814L32.4401 6.1001L30.3677 8.31365L34.8625 14.9814Z" fill="#4678C5"/>
<path d="M33.2476 5.64135L36.2351 15.4674L39.5995 16.2773V4.8855L33.2476 5.64135Z" fill="#4678C5"/>
<path d="M23.8678 14.5765L24.4532 13.5845L21.0014 11.0335V10.3856L19.5681 9.27209V8.21928L17.8927 6.86279L13.3508 11.3372L12.826 10.993L11.2515 13.0378L12.4424 14.2324L9.63658 17.7957C9.63658 17.7957 8.86952 19.1319 8.70801 19.6381L9.19248 20.286C9.19248 20.286 10.5046 19.7191 10.8679 19.3546C11.2313 18.9902 14.0977 15.5281 14.0977 15.5281L15.1474 16.4594L16.8228 14.6373L16.2778 13.6857C16.2778 13.6857 17.2669 13.2606 18.2762 13.706L18.8818 13.3415L22.0308 15.9938L22.8181 15.3661L20.0727 13.1593L20.7591 12.1875L23.8678 14.5765ZM10.1816 18.5852L9.75766 18.2006L12.3415 15.0017L12.8461 15.3662L10.1816 18.5852ZM11.8772 13.0176L12.5837 12.2685L15.0263 15.5281L11.8772 13.0176ZM18.6597 13.0176L18.1753 12.5519H17.0045L18.0138 9.73774L19.8911 11.2562L18.6597 13.0176Z" fill="#4678C5"/>
<path d="M2.18774 26.8052C2.18774 26.8052 4.54954 23.1407 6.97187 21.5615C6.97187 21.5615 5.09455 23.3634 5.35697 23.6266C5.61939 23.8898 7.49671 22.0069 7.49671 22.0069C7.49671 22.0069 4.28711 25.9751 2.18774 26.8052Z" fill="#BE3F45"/>
<path d="M29.217 21.3624C29.5942 21.3624 29.9 21.0557 29.9 20.6774C29.9 20.2991 29.5942 19.9924 29.217 19.9924C28.8398 19.9924 28.5341 20.2991 28.5341 20.6774C28.5341 21.0557 28.8398 21.3624 29.217 21.3624Z" fill="#4678C5"/>
<path d="M29.217 29.9447C29.5942 29.9447 29.9 29.638 29.9 29.2597C29.9 28.8814 29.5942 28.5747 29.217 28.5747C28.8398 28.5747 28.5341 28.8814 28.5341 29.2597C28.5341 29.638 28.8398 29.9447 29.217 29.9447Z" fill="#4678C5"/>
<path d="M25.9899 42.4887L23.8665 38.1232L18.7704 41.9493L18.2021 41.3824L17.314 42.1923L16.5873 41.7064L17.9599 40.4106L18.7704 40.3026L22.845 35.5379L22.398 34.1758L12.9537 43.758L14.1918 45.1617L12.2271 46.8894L13.196 48.2661L13.5997 47.9422L14.7302 49.1029L14.3803 49.5618L15.3492 50.5876L17.1525 48.9139L18.2022 50.1017L18.9558 50.1827L19.8978 48.0771L21.0283 48.671L21.9164 47.8341L21.2705 46.3224L25.9899 42.4887ZM16.6949 48.0771C15.8922 48.0771 15.2415 47.4245 15.2415 46.6194C15.2415 45.8143 15.8922 45.1617 16.6949 45.1617C17.4976 45.1617 18.1483 45.8144 18.1483 46.6194C18.1483 47.4245 17.4976 48.0771 16.6949 48.0771ZM20.0234 43.9464C20.0234 43.1413 20.6741 42.4887 21.4768 42.4887C22.2795 42.4887 22.9302 43.1414 22.9302 43.9464C22.9302 44.7515 22.2795 45.4041 21.4768 45.4041C20.6741 45.4041 20.0234 44.7515 20.0234 43.9464Z" fill="#4678C5"/>
<path d="M56.6635 15.1704L56.6904 17.5729L58.3322 19.0576C58.3322 19.0576 58.7897 42.678 40.38 53.125C21.9702 42.6781 22.4278 19.0577 22.4278 19.0577L24.0696 17.573L24.0965 15.1704L20.5707 18.1399C20.6245 46.7273 40.38 56.3239 40.38 56.3239C40.38 56.3239 60.1355 46.7273 60.1893 18.1399L56.6635 15.1704Z" fill="#4678C5"/>
<path d="M55.1293 13.9287H54.7525L53.2453 6.01919L47.9161 3.13076L40.38 2.53687L32.8439 3.13076L27.5147 6.01919L26.0075 13.9287H25.6307C25.6307 13.9287 25.3346 14.806 25.3346 15.4943C25.3346 16.1827 25.3346 21.7976 25.3346 21.7976H25.523L29.5602 40.0326L35.9659 48.2659H40.38H44.794L51.1997 40.0326L55.2369 21.7976H55.4253C55.4253 21.7976 55.4253 16.1827 55.4253 15.4943C55.4253 14.806 55.1293 13.9287 55.1293 13.9287ZM51.8726 30.8544L51.8457 33.8778H50.0962L48.9658 39.8976L47.4048 41.8682L46.5435 42.1112L47.7277 35.5245C47.7277 35.5245 48.3737 39.3577 48.3737 39.4927C48.3737 39.6277 49.4234 33.9588 49.4234 33.9588H47.2702L43.9596 33.5538L44.0135 44.2438C43.3675 45.9444 42.2371 46.8352 42.2371 46.8352L40.38 47.1052L38.5229 46.8352C38.5229 46.8352 37.3924 45.9444 36.7465 44.2438L36.8003 33.5538L33.4898 33.9588H31.3366C31.3366 33.9588 32.3863 39.6277 32.3863 39.4927C32.3863 39.3577 33.0322 35.5245 33.0322 35.5245L34.2165 42.1112L33.3552 41.8682L31.7941 39.8976L30.6637 33.8778H28.9142L28.8873 30.8544L27.9453 29.1807L30.0985 24.9695L28.026 23.1879V18.7337L31.0943 16.8441L29.291 7.63888L33.0591 4.99339L40.3799 3.9946L47.7008 4.99339L51.4689 7.63888L49.6656 16.8441L52.7338 18.7337V23.1879L50.6614 24.9695L52.8146 29.1807L51.8726 30.8544Z" fill="#4678C5"/>
<path d="M45.8975 14.9814L48.3198 6.1001L50.3923 8.31365L45.8975 14.9814Z" fill="#4678C5"/>
<path d="M47.5124 5.64135L44.5249 15.4674L41.1605 16.2773V4.8855L47.5124 5.64135Z" fill="#4678C5"/>
<path d="M40.38 18.0318L34.0551 16.4121L40.38 19.4085L46.705 16.4121L40.38 18.0318Z" fill="#4678C5"/>
<path d="M40.38 20.6772H31.3097V29.1806H40.38H49.4503V20.6772H40.38Z" fill="#4678C5"/>
<path d="M50.5941 31.3808H40.3799H30.1658L29.5602 30.4292L29.8428 32.0489H40.3799H50.9171L51.1997 30.4292L50.5941 31.3808Z" fill="#4678C5"/>
<path d="M60.001 12.1875L60.6873 13.1593L57.942 15.3662L58.7292 15.9938L61.8782 13.3416L62.4838 13.706C63.4931 13.2606 64.4823 13.6857 64.4823 13.6857L63.9372 14.6373L65.6127 16.4594L66.6624 15.5281C66.6624 15.5281 69.5288 18.9902 69.8921 19.3546C70.2555 19.7191 71.5676 20.2859 71.5676 20.2859L72.052 19.6381C71.8906 19.1319 71.1235 17.7957 71.1235 17.7957L68.3176 14.2324L69.5086 13.0378L67.9341 10.993L67.4092 11.3372L62.8674 6.86279L61.1919 8.21928V9.27209L59.7587 10.3856V11.0335L56.3069 13.5845L56.8923 14.5765L60.001 12.1875ZM67.9139 15.3662L68.4185 15.0017L71.0024 18.2006L70.5785 18.5852L67.9139 15.3662ZM65.7338 15.5281L68.1763 12.2685L68.8828 13.0176L65.7338 15.5281ZM60.869 11.2562L62.7463 9.73777L63.7556 12.552H62.5848L62.1003 13.0176L60.869 11.2562Z" fill="#4678C5"/>
<path d="M78.5722 26.8052C78.5722 26.8052 76.2104 23.1407 73.788 21.5615C73.788 21.5615 75.6653 23.3634 75.4029 23.6266C75.1405 23.8898 73.2632 22.0069 73.2632 22.0069C73.2632 22.0069 76.4728 25.9751 78.5722 26.8052Z" fill="#BE3F45"/>
<path d="M51.5429 21.3624C51.9201 21.3624 52.2259 21.0557 52.2259 20.6774C52.2259 20.2991 51.9201 19.9924 51.5429 19.9924C51.1658 19.9924 50.86 20.2991 50.86 20.6774C50.86 21.0557 51.1658 21.3624 51.5429 21.3624Z" fill="#4678C5"/>
<path d="M51.5429 29.9447C51.9201 29.9447 52.2259 29.638 52.2259 29.2597C52.2259 28.8814 51.9201 28.5747 51.5429 28.5747C51.1658 28.5747 50.86 28.8814 50.86 29.2597C50.86 29.638 51.1658 29.9447 51.5429 29.9447Z" fill="#4678C5"/>
<path d="M59.4895 46.3224L58.8435 47.8341L59.7317 48.671L60.8622 48.0771L61.8042 50.1827L62.5578 50.1017L63.6075 48.9139L65.4107 50.5876L66.3797 49.5618L66.0298 49.1029L67.1602 47.9422L67.564 48.2661L68.5329 46.8894L66.5681 45.1617L67.8062 43.758L58.3619 34.1758L57.9149 35.5379L61.9896 40.3026L62.8 40.4106L64.1727 41.7064L63.446 42.1923L62.5578 41.3824L61.9896 41.9493L56.8934 38.1232L54.77 42.4886L59.4895 46.3224ZM62.6116 46.6194C62.6116 45.8143 63.2623 45.1617 64.065 45.1617C64.8677 45.1617 65.5184 45.8143 65.5184 46.6194C65.5184 47.4245 64.8677 48.0771 64.065 48.0771C63.2623 48.0771 62.6116 47.4245 62.6116 46.6194ZM59.2831 45.4041C58.4804 45.4041 57.8297 44.7515 57.8297 43.9464C57.8297 43.1413 58.4804 42.4887 59.2831 42.4887C60.0858 42.4887 60.7365 43.1413 60.7365 43.9464C60.7365 44.7515 60.0858 45.4041 59.2831 45.4041Z" fill="#4678C5"/>
<path d="M40.8825 19.8945H40.38H40.0852H30.4753V30.0176H40.38H50.2846V19.8945H40.8825ZM49.6925 29.5587H40.38H31.0675V20.4074H40.0852H40.38H40.8825H49.6925V29.5587Z" fill="#4678C5"/>
</svg>
