<svg width="15" height="15" viewBox="0 0 15 15" fill="none" xmlns="http://www.w3.org/2000/svg">
<path d="M7.50006 0C4.5046 0 2.06763 2.43697 2.06763 5.4324C2.06763 9.14982 6.92912 14.6072 7.1361 14.8377C7.33052 15.0543 7.66995 15.0539 7.86401 14.8377C8.071 14.6072 12.9325 9.14982 12.9325 5.4324C12.9324 2.43697 10.4955 0 7.50006 0ZM7.50006 8.1656C5.99297 8.1656 4.76689 6.93949 4.76689 5.4324C4.76689 3.92531 5.993 2.69924 7.50006 2.69924C9.00712 2.69924 10.2332 3.92534 10.2332 5.43243C10.2332 6.93952 9.00712 8.1656 7.50006 8.1656Z" fill="#4678C5"/>
</svg>
