<svg width="18" height="18" viewBox="0 0 18 18" fill="none" xmlns="http://www.w3.org/2000/svg">
<g clip-path="url(#clip0)">
<path d="M13.6848 11.9074C13.0967 11.3268 12.3626 11.3268 11.7783 11.9074C11.3326 12.3494 10.8868 12.7913 10.4486 13.2408C10.3287 13.3644 10.2276 13.3906 10.0815 13.3082C9.7931 13.1509 9.48596 13.0236 9.20878 12.8513C7.91654 12.0385 6.83405 10.9934 5.87517 9.81731C5.39947 9.23299 4.97622 8.60747 4.68031 7.90329C4.62038 7.76096 4.63162 7.66732 4.74773 7.5512C5.19346 7.12045 5.62796 6.67847 6.0662 6.23648C6.67673 5.6222 6.67673 4.90304 6.06245 4.28501C5.71411 3.93292 5.36576 3.58832 5.01742 3.23623C4.65784 2.87665 4.302 2.51333 3.93868 2.15749C3.35061 1.58441 2.61647 1.58441 2.03215 2.16124C1.58268 2.60322 1.15193 3.05644 0.694963 3.49094C0.271707 3.89172 0.0582058 4.3824 0.0132582 4.95548C-0.0579087 5.88814 0.170575 6.76836 0.492699 7.62611C1.15193 9.40154 2.15576 10.9785 3.37309 12.4243C5.01742 14.3795 6.98013 15.9264 9.2762 17.0426C10.31 17.5445 11.3812 17.9303 12.5461 17.994C13.3477 18.039 14.0444 17.8367 14.6025 17.2112C14.9845 16.7842 15.4153 16.3946 15.8198 15.9864C16.4191 15.3796 16.4229 14.6454 15.8273 14.0461C15.1156 13.3307 14.4002 12.619 13.6848 11.9074Z" fill="#AAA5A5"/>
<path d="M12.9694 8.92211L14.3515 8.68614C14.1343 7.41637 13.535 6.26646 12.6248 5.35253C11.6622 4.3899 10.4448 3.78311 9.1039 3.59583L8.90913 4.98545C9.94667 5.13153 10.8906 5.59974 11.6359 6.34512C12.3401 7.0493 12.8008 7.94076 12.9694 8.92211Z" fill="#AAA5A5"/>
<path d="M15.1306 2.9141C13.535 1.31846 11.5161 0.310887 9.28744 0L9.09267 1.38963C11.0179 1.65931 12.7634 2.53205 14.1418 3.90669C15.449 5.21392 16.3068 6.86574 16.6176 8.68237L17.9998 8.4464C17.6364 6.34135 16.6439 4.43108 15.1306 2.9141Z" fill="#AAA5A5"/>
</g>
<defs>
<clipPath id="clip0">
<rect width="18" height="18" fill="white"/>
</clipPath>
</defs>
</svg>
