<svg width="55" height="55" viewBox="0 0 55 55" fill="none" xmlns="http://www.w3.org/2000/svg">
<path d="M39.8214 0H15.1776C6.80867 0 0 6.809 0 15.1779V39.8218C0 48.191 6.80867 54.9997 15.1776 54.9997H39.8214C48.191 54.9997 54.9997 48.1907 54.9997 39.8218V15.1779C55 6.809 48.191 0 39.8214 0ZM50.1202 39.8218C50.1202 45.5003 45.5003 50.1198 39.8218 50.1198H15.1776C9.49942 50.1202 4.87984 45.5003 4.87984 39.8218V15.1779C4.87984 9.49974 9.49942 4.87984 15.1776 4.87984H39.8214C45.4999 4.87984 50.1198 9.49974 50.1198 15.1779V39.8218H50.1202Z" fill="#4678C5"/>
<path d="M27.4999 13.3284C19.6853 13.3284 13.3279 19.6858 13.3279 27.5004C13.3279 35.3146 19.6853 41.6718 27.4999 41.6718C35.3145 41.6718 41.6719 35.3146 41.6719 27.5004C41.6719 19.6858 35.3145 13.3284 27.4999 13.3284ZM27.4999 36.7916C22.3764 36.7916 18.2077 32.6236 18.2077 27.5001C18.2077 22.3762 22.3761 18.2079 27.4999 18.2079C32.6237 18.2079 36.7921 22.3762 36.7921 27.5001C36.7921 32.6236 32.6234 36.7916 27.4999 36.7916Z" fill="#4678C5"/>
<path d="M42.2663 9.19067C41.3261 9.19067 40.4025 9.5713 39.7385 10.2382C39.0713 10.9019 38.6877 11.8258 38.6877 12.7692C38.6877 13.7097 39.0716 14.6333 39.7385 15.3002C40.4022 15.9639 41.3261 16.3478 42.2663 16.3478C43.2097 16.3478 44.1304 15.9639 44.7973 15.3002C45.4642 14.6333 45.8448 13.7094 45.8448 12.7692C45.8448 11.8258 45.4642 10.9019 44.7973 10.2382C44.1336 9.5713 43.2097 9.19067 42.2663 9.19067Z" fill="#4678C5"/>
</svg>
