<svg width="81" height="77" viewBox="0 0 81 77" fill="none" xmlns="http://www.w3.org/2000/svg">
<path d="M18.0127 62.585H14.1719V73H11.0869V62.585H7.31641V60.2031H18.0127V62.585ZM16.9844 68.1572C16.9844 67.208 17.1689 66.3643 17.5381 65.626C17.9072 64.8818 18.4375 64.3105 19.1289 63.9121C19.8203 63.5137 20.6318 63.3145 21.5635 63.3145C22.9873 63.3145 24.1094 63.7568 24.9297 64.6416C25.75 65.5205 26.1602 66.7188 26.1602 68.2363V68.3418C26.1602 69.8242 25.7471 71.002 24.9209 71.875C24.1006 72.7422 22.9873 73.1758 21.5811 73.1758C20.2275 73.1758 19.1406 72.7715 18.3203 71.9629C17.5 71.1484 17.0576 70.0469 16.9932 68.6582L16.9844 68.1572ZM19.9463 68.3418C19.9463 69.2207 20.084 69.8652 20.3594 70.2754C20.6348 70.6855 21.042 70.8906 21.5811 70.8906C22.6357 70.8906 23.1748 70.0791 23.1982 68.4561V68.1572C23.1982 66.4521 22.6533 65.5996 21.5635 65.5996C20.5732 65.5996 20.0371 66.335 19.9551 67.8057L19.9463 68.3418ZM35.9688 73H32.9893V65.7754H30.3701V73H27.4082V63.4902H35.9688V73ZM52.9404 60.2031V73H49.8555V62.585H46.9814L46.7705 66.8828C46.6826 68.3652 46.4775 69.5488 46.1553 70.4336C45.833 71.3184 45.373 71.9658 44.7754 72.376C44.1836 72.7803 43.375 72.9883 42.3496 73H41.5234V70.627L41.9541 70.583C42.5693 70.4951 43.0146 70.1201 43.29 69.458C43.5654 68.79 43.7441 67.668 43.8262 66.0918L44.0459 60.2031H52.9404ZM54.3555 68.1572C54.3555 67.208 54.54 66.3643 54.9092 65.626C55.2783 64.8818 55.8086 64.3105 56.5 63.9121C57.1914 63.5137 58.0029 63.3145 58.9346 63.3145C60.3584 63.3145 61.4805 63.7568 62.3008 64.6416C63.1211 65.5205 63.5312 66.7188 63.5312 68.2363V68.3418C63.5312 69.8242 63.1182 71.002 62.292 71.875C61.4717 72.7422 60.3584 73.1758 58.9521 73.1758C57.5986 73.1758 56.5117 72.7715 55.6914 71.9629C54.8711 71.1484 54.4287 70.0469 54.3643 68.6582L54.3555 68.1572ZM57.3174 68.3418C57.3174 69.2207 57.4551 69.8652 57.7305 70.2754C58.0059 70.6855 58.4131 70.8906 58.9521 70.8906C60.0068 70.8906 60.5459 70.0791 60.5693 68.4561V68.1572C60.5693 66.4521 60.0244 65.5996 58.9346 65.5996C57.9443 65.5996 57.4082 66.335 57.3262 67.8057L57.3174 68.3418ZM70.791 69.7305L72.9443 63.4902H76.6709V73H73.7002V67.7266L71.7842 73H69.8154L68.0049 68.0078V73H65.0342V63.4902H68.6729L70.791 69.7305Z" fill="#4678C5"/>
<path d="M72.5062 20.2656L72.7182 19.8303C72.7182 19.8303 71.7695 17.168 69.1654 14.293L70.4372 13.139L68.2167 10.3248L67.4698 10.5475L62.9616 5.99217L60.5123 8.01676V8.98858L59.032 10.2033V10.8242L55.9368 12.9838L54.3758 5.31733L48.6159 2.05091L43.9327 1.34906H40.38H36.8272L32.144 2.05091L26.3843 5.31727L24.8232 12.9838L21.728 10.8242V10.2033L20.2477 8.98852V8.01673L17.7984 5.99214L13.2902 10.5475L12.5433 10.3248L10.3228 13.139L11.5946 14.293C8.99057 17.1679 8.04183 19.8303 8.04183 19.8303L8.25379 20.2656C2.996 22.6421 0.761353 28.2088 0.761353 28.2088C7.5708 24.8884 8.76852 20.7718 8.76852 20.7718L9.17225 20.9742C10.1816 20.711 11.5542 19.638 11.5542 19.638L14.1515 16.4526L15.1877 17.3029L17.5562 14.6844L17.1794 14.0501L18.3771 14.455L18.8616 14.212L21.4454 16.3986L19.9599 17.8237C20.0079 23.8238 20.841 28.9846 22.145 33.4045L22.1405 33.3908L12.0791 43.8118L13.2499 45.148L11.2313 46.8487L12.9673 49.2782L13.5729 48.7923L13.8555 49.2782L13.5325 49.7641L15.43 51.5863L17.166 49.8046L17.933 50.6955L19.3057 50.6145L20.2746 48.9138L21.0821 49.4807L22.6162 48.023L21.9703 46.4843L26.3095 43.1455L26.3093 43.1451C32.3042 53.4331 40.38 57.0123 40.38 57.0123C40.38 57.0123 48.4559 53.4331 54.4508 43.1451L54.4505 43.1455L58.7898 46.4843L58.1439 48.023L59.678 49.4807L60.4855 48.9138L61.4544 50.6145L62.827 50.6955L63.5941 49.8046L65.3301 51.5863L67.2276 49.7641L66.9047 49.2782L67.1872 48.7923L67.7928 49.2782L69.5288 46.8487L67.5102 45.148L68.681 43.8118L58.6196 33.3908L58.6152 33.4044C59.9191 28.9845 60.7521 23.8237 60.8002 17.8237L59.3147 16.3986L61.8985 14.212L62.3829 14.455L63.5807 14.0501L63.2039 14.6844L65.5724 17.3029L66.6086 16.4526L69.2059 19.638C69.2059 19.638 70.5785 20.711 71.5878 20.9742L71.9916 20.7718C71.9916 20.7718 73.1893 24.8885 79.9987 28.2088C79.9986 28.2088 77.764 22.6421 72.5062 20.2656ZM23.5518 37.4759L18.7704 41.1933L18.6059 40.7884L18.9827 40.6264L23.0425 36.1395L23.0393 36.1295C23.2061 36.5894 23.3782 37.0402 23.5548 37.4821L23.5518 37.4759ZM61.7773 40.6264L62.1541 40.7884L61.9896 41.1933L57.2082 37.4759L57.2052 37.4822C57.3818 37.0401 57.5539 36.5894 57.7208 36.1294L57.7175 36.1395L61.7773 40.6264Z" fill="white"/>
<path d="M34.8625 14.9814L32.4401 6.10013L30.3677 8.31368L34.8625 14.9814Z" fill="#4678C5"/>
<path d="M33.2476 5.6412L36.2351 15.4673L39.5995 16.2771V4.88535L33.2476 5.6412Z" fill="#4678C5"/>
<path d="M23.8678 14.5765L24.4532 13.5844L21.0014 11.0334V10.3855L19.5681 9.27202V8.21922L17.8927 6.86273L13.3508 11.3371L12.826 10.9929L11.2515 13.0378L12.4424 14.2323L9.63658 17.7956C9.63658 17.7956 8.86952 19.1318 8.70801 19.638L9.19248 20.2859C9.19248 20.2859 10.5046 19.719 10.8679 19.3546C11.2313 18.9901 14.0977 15.5281 14.0977 15.5281L15.1474 16.4594L16.8228 14.6372L16.2778 13.6857C16.2778 13.6857 17.2669 13.2605 18.2762 13.7059L18.8818 13.3415L22.0308 15.9937L22.8181 15.3661L20.0727 13.1593L20.7591 12.1874L23.8678 14.5765ZM10.1816 18.5852L9.75766 18.2005L12.3415 15.0017L12.8461 15.3661L10.1816 18.5852ZM11.8772 13.0175L12.5837 12.2684L15.0263 15.528L11.8772 13.0175ZM18.6597 13.0175L18.1753 12.5519H17.0045L18.0138 9.73768L19.8911 11.2561L18.6597 13.0175Z" fill="#4678C5"/>
<path d="M2.18774 26.8051C2.18774 26.8051 4.54954 23.1405 6.97187 21.5614C6.97187 21.5614 5.09455 23.3633 5.35697 23.6265C5.61939 23.8897 7.49671 22.0068 7.49671 22.0068C7.49671 22.0068 4.28711 25.975 2.18774 26.8051Z" fill="#BE3F45"/>
<path d="M29.217 21.3623C29.5942 21.3623 29.9 21.0556 29.9 20.6773C29.9 20.299 29.5942 19.9923 29.217 19.9923C28.8398 19.9923 28.5341 20.299 28.5341 20.6773C28.5341 21.0556 28.8398 21.3623 29.217 21.3623Z" fill="#4678C5"/>
<path d="M29.217 29.9447C29.5942 29.9447 29.9 29.638 29.9 29.2597C29.9 28.8814 29.5942 28.5747 29.217 28.5747C28.8398 28.5747 28.5341 28.8814 28.5341 29.2597C28.5341 29.638 28.8398 29.9447 29.217 29.9447Z" fill="#4678C5"/>
<path d="M25.9899 42.4885L23.8665 38.1231L18.7704 41.9491L18.2021 41.3823L17.314 42.1921L16.5873 41.7062L17.9599 40.4104L18.7704 40.3024L22.845 35.5377L22.398 34.1756L12.9537 43.7578L14.1918 45.1615L12.2271 46.8892L13.196 48.2659L13.5997 47.942L14.7302 49.1027L14.3803 49.5616L15.3492 50.5874L17.1525 48.9138L18.2022 50.1015L18.9558 50.1825L19.8978 48.0769L21.0283 48.6708L21.9164 47.834L21.2705 46.3222L25.9899 42.4885ZM16.6949 48.0769C15.8922 48.0769 15.2415 47.4243 15.2415 46.6192C15.2415 45.8141 15.8922 45.1615 16.6949 45.1615C17.4976 45.1615 18.1483 45.8142 18.1483 46.6192C18.1483 47.4243 17.4976 48.0769 16.6949 48.0769ZM20.0234 43.9462C20.0234 43.1411 20.6741 42.4885 21.4768 42.4885C22.2795 42.4885 22.9302 43.1412 22.9302 43.9462C22.9302 44.7513 22.2795 45.4039 21.4768 45.4039C20.6741 45.4039 20.0234 44.7513 20.0234 43.9462Z" fill="#4678C5"/>
<path d="M56.6635 15.1703L56.6904 17.5729L58.3322 19.0576C58.3322 19.0576 58.7897 42.678 40.38 53.1249C21.9702 42.678 22.4278 19.0576 22.4278 19.0576L24.0696 17.5729L24.0965 15.1704L20.5707 18.1398C20.6245 46.7272 40.38 56.3239 40.38 56.3239C40.38 56.3239 60.1355 46.7272 60.1893 18.1398L56.6635 15.1703Z" fill="#4678C5"/>
<path d="M55.1293 13.9286H54.7525L53.2453 6.0191L47.9161 3.13067L40.38 2.53677L32.8439 3.13067L27.5147 6.0191L26.0075 13.9286H25.6307C25.6307 13.9286 25.3346 14.8059 25.3346 15.4943C25.3346 16.1826 25.3346 21.7975 25.3346 21.7975H25.523L29.5602 40.0325L35.9659 48.2659H40.38H44.794L51.1997 40.0325L55.2369 21.7975H55.4253C55.4253 21.7975 55.4253 16.1826 55.4253 15.4943C55.4253 14.8059 55.1293 13.9286 55.1293 13.9286ZM51.8726 30.8543L51.8457 33.8777H50.0962L48.9658 39.8975L47.4048 41.8682L46.5435 42.1111L47.7277 35.5244C47.7277 35.5244 48.3737 39.3576 48.3737 39.4926C48.3737 39.6276 49.4234 33.9587 49.4234 33.9587H47.2702L43.9596 33.5538L44.0135 44.2437C43.3675 45.9443 42.2371 46.8352 42.2371 46.8352L40.38 47.1051L38.5229 46.8352C38.5229 46.8352 37.3924 45.9443 36.7465 44.2437L36.8003 33.5538L33.4898 33.9587H31.3366C31.3366 33.9587 32.3863 39.6276 32.3863 39.4926C32.3863 39.3576 33.0322 35.5244 33.0322 35.5244L34.2165 42.1111L33.3552 41.8682L31.7941 39.8975L30.6637 33.8777H28.9142L28.8873 30.8543L27.9453 29.1806L30.0985 24.9694L28.026 23.1878V18.7336L31.0943 16.844L29.291 7.63879L33.0591 4.9933L40.3799 3.99451L47.7008 4.9933L51.4689 7.63879L49.6656 16.844L52.7338 18.7336V23.1878L50.6614 24.9694L52.8146 29.1806L51.8726 30.8543Z" fill="#4678C5"/>
<path d="M45.8975 14.9814L48.3198 6.10013L50.3923 8.31368L45.8975 14.9814Z" fill="#4678C5"/>
<path d="M47.5124 5.6412L44.5249 15.4673L41.1605 16.2771V4.88535L47.5124 5.6412Z" fill="#4678C5"/>
<path d="M40.38 18.0318L34.0551 16.4121L40.38 19.4085L46.705 16.4121L40.38 18.0318Z" fill="#4678C5"/>
<path d="M40.38 20.6772H31.3097V29.1806H40.38H49.4503V20.6772H40.38Z" fill="#4678C5"/>
<path d="M50.5941 31.3807H40.3799H30.1658L29.5602 30.4291L29.8428 32.0488H40.3799H50.9171L51.1997 30.4291L50.5941 31.3807Z" fill="#4678C5"/>
<path d="M60.001 12.1874L60.6873 13.1592L57.942 15.3661L58.7292 15.9937L61.8782 13.3415L62.4838 13.7059C63.4931 13.2605 64.4823 13.6856 64.4823 13.6856L63.9372 14.6372L65.6127 16.4594L66.6624 15.528C66.6624 15.528 69.5288 18.9901 69.8921 19.3545C70.2555 19.719 71.5676 20.2859 71.5676 20.2859L72.052 19.638C71.8906 19.1318 71.1235 17.7956 71.1235 17.7956L68.3176 14.2323L69.5086 13.0377L67.9341 10.9929L67.4092 11.3371L62.8674 6.8627L61.1919 8.21919V9.27199L59.7587 10.3855V11.0334L56.3069 13.5844L56.8923 14.5764L60.001 12.1874ZM67.9139 15.3661L68.4185 15.0016L71.0024 18.2005L70.5785 18.5852L67.9139 15.3661ZM65.7338 15.5281L68.1763 12.2684L68.8828 13.0175L65.7338 15.5281ZM60.869 11.2561L62.7463 9.73767L63.7556 12.5519H62.5848L62.1003 13.0175L60.869 11.2561Z" fill="#4678C5"/>
<path d="M78.5722 26.8051C78.5722 26.8051 76.2104 23.1405 73.788 21.5614C73.788 21.5614 75.6653 23.3633 75.4029 23.6265C75.1405 23.8897 73.2632 22.0068 73.2632 22.0068C73.2632 22.0068 76.4728 25.975 78.5722 26.8051Z" fill="#BE3F45"/>
<path d="M51.5429 21.3623C51.9201 21.3623 52.2259 21.0556 52.2259 20.6773C52.2259 20.299 51.9201 19.9923 51.5429 19.9923C51.1658 19.9923 50.86 20.299 50.86 20.6773C50.86 21.0556 51.1658 21.3623 51.5429 21.3623Z" fill="#4678C5"/>
<path d="M51.5429 29.9447C51.9201 29.9447 52.2259 29.638 52.2259 29.2597C52.2259 28.8814 51.9201 28.5747 51.5429 28.5747C51.1658 28.5747 50.86 28.8814 50.86 29.2597C50.86 29.638 51.1658 29.9447 51.5429 29.9447Z" fill="#4678C5"/>
<path d="M59.4895 46.3223L58.8435 47.834L59.7317 48.6708L60.8622 48.0769L61.8042 50.1825L62.5578 50.1016L63.6075 48.9138L65.4107 50.5875L66.3797 49.5617L66.0298 49.1028L67.1602 47.942L67.564 48.2659L68.5329 46.8892L66.5681 45.1615L67.8062 43.7578L58.3619 34.1756L57.9149 35.5377L61.9896 40.3025L62.8 40.4105L64.1727 41.7062L63.446 42.1921L62.5578 41.3823L61.9896 41.9492L56.8934 38.1231L54.77 42.4885L59.4895 46.3223ZM62.6116 46.6192C62.6116 45.8142 63.2623 45.1615 64.065 45.1615C64.8677 45.1615 65.5184 45.8142 65.5184 46.6192C65.5184 47.4243 64.8677 48.0769 64.065 48.0769C63.2623 48.0769 62.6116 47.4243 62.6116 46.6192ZM59.2831 45.4039C58.4804 45.4039 57.8297 44.7513 57.8297 43.9462C57.8297 43.1411 58.4804 42.4885 59.2831 42.4885C60.0858 42.4885 60.7365 43.1412 60.7365 43.9462C60.7365 44.7513 60.0858 45.4039 59.2831 45.4039Z" fill="#4678C5"/>
<path d="M40.8825 19.8944H40.38H40.0852H30.4753V30.0175H40.38H50.2846V19.8944H40.8825ZM49.6925 29.5586H40.38H31.0675V20.4073H40.0852H40.38H40.8825H49.6925V29.5586Z" fill="#4678C5"/>
</svg>
