<svg width="18" height="18" viewBox="0 0 18 18" fill="none" xmlns="http://www.w3.org/2000/svg">
<path d="M13.6846 11.9073C13.0965 11.3268 12.3624 11.3268 11.7781 11.9073C11.3323 12.3493 10.8866 12.7913 10.4484 13.2408C10.3285 13.3644 10.2274 13.3906 10.0813 13.3082C9.79288 13.1509 9.48574 13.0235 9.20857 12.8512C7.91632 12.0384 6.83384 10.9934 5.87496 9.81728C5.39926 9.23296 4.976 8.60744 4.6801 7.90326C4.62017 7.76093 4.63141 7.66728 4.74752 7.55117C5.19325 7.12042 5.62774 6.67844 6.06598 6.23645C6.67652 5.62217 6.67652 4.90301 6.06224 4.28498C5.71389 3.93289 5.36555 3.58829 5.01721 3.2362C4.65763 2.87662 4.30179 2.5133 3.93846 2.15746C3.3504 1.58438 2.61626 1.58438 2.03194 2.16121C1.58246 2.60319 1.15172 3.05641 0.694749 3.49091C0.271493 3.89169 0.0579922 4.38237 0.0130446 4.95545C-0.0581223 5.88811 0.170361 6.76833 0.492485 7.62608C1.15172 9.40151 2.15554 10.9784 3.37287 12.4242C5.01721 14.3795 6.97992 15.9264 9.27599 17.0426C10.3098 17.5445 11.381 17.9303 12.5459 17.994C13.3475 18.0389 14.0442 17.8367 14.6023 17.2111C14.9843 16.7841 15.4151 16.3946 15.8196 15.9863C16.4189 15.3795 16.4226 14.6454 15.8271 14.0461C15.1154 13.3307 14.4 12.619 13.6846 11.9073Z" fill="#4678C5"/>
<path d="M12.9694 8.92214L14.3516 8.68617C14.1343 7.4164 13.535 6.26649 12.6248 5.35256C11.6622 4.38993 10.4449 3.78314 9.10395 3.59586L8.90918 4.98548C9.94672 5.13156 10.8906 5.59977 11.636 6.34515C12.3402 7.04933 12.8009 7.94079 12.9694 8.92214Z" fill="#4678C5"/>
<path d="M15.1305 2.9141C13.5348 1.31846 11.516 0.310887 9.2873 0L9.09253 1.38963C11.0178 1.65931 12.7632 2.53205 14.1416 3.90669C15.4489 5.21392 16.3066 6.86574 16.6175 8.68237L17.9996 8.4464C17.6363 6.34135 16.6437 4.43108 15.1305 2.9141Z" fill="#4678C5"/>
</svg>
