<svg width="16" height="16" viewBox="0 0 16 16" fill="none" xmlns="http://www.w3.org/2000/svg">
<g clip-path="url(#clip0)">
<path d="M15.6498 7.28235C15.9647 6.97542 16.0759 6.52496 15.9401 6.10621C15.8039 5.68747 15.4492 5.38855 15.0135 5.32512L11.1394 4.7622C10.9744 4.73817 10.8318 4.63469 10.7582 4.48507L9.02615 0.974937C8.83168 0.580543 8.43697 0.335449 7.99708 0.335449C7.55751 0.335449 7.1628 0.580543 6.96833 0.974937L5.23601 4.48539C5.16232 4.63501 5.01943 4.73849 4.85443 4.76252L0.98034 5.32544C0.544938 5.38855 0.189952 5.68779 0.0537881 6.10653C-0.0820549 6.52528 0.0291185 6.97574 0.344056 7.28267L3.1471 10.0149C3.2666 10.1315 3.32139 10.2994 3.2932 10.4634L2.63192 14.3215C2.57329 14.6611 2.66236 14.9914 2.88214 15.2519C3.22367 15.6578 3.81991 15.7815 4.29664 15.531L7.76128 13.7093C7.90609 13.6333 8.08839 13.634 8.23288 13.7093L11.6978 15.531C11.8664 15.6197 12.0461 15.6646 12.2316 15.6646C12.5702 15.6646 12.8913 15.514 13.112 15.2519C13.3321 14.9914 13.4209 14.6605 13.3622 14.3215L12.7006 10.4634C12.6725 10.2991 12.7272 10.1315 12.8467 10.0149L15.6498 7.28235Z" fill="#FAAC3D"/>
<path d="M15.6498 7.28235C15.9647 6.97542 16.0759 6.52496 15.9401 6.10621C15.8039 5.68747 15.4492 5.38855 15.0135 5.32512L11.1394 4.7622C10.9744 4.73817 10.8318 4.63469 10.7582 4.48507L9.02615 0.974937C8.83168 0.580543 8.43697 0.335449 7.99708 0.335449C7.55751 0.335449 7.1628 0.580543 6.96833 0.974937L5.23601 4.48539C5.16232 4.63501 5.01943 4.73849 4.85443 4.76252L0.98034 5.32544C0.544938 5.38855 0.189952 5.68779 0.0537881 6.10653C-0.0820549 6.52528 0.0291185 6.97574 0.344056 7.28267L3.1471 10.0149C3.2666 10.1315 3.32139 10.2994 3.2932 10.4634L2.63192 14.3215C2.57329 14.6611 2.66236 14.9914 2.88214 15.2519C3.22367 15.6578 3.81991 15.7815 4.29664 15.531L7.76128 13.7093C7.90609 13.6333 8.08839 13.634 8.23288 13.7093L11.6978 15.531C11.8664 15.6197 12.0461 15.6646 12.2316 15.6646C12.5702 15.6646 12.8913 15.514 13.112 15.2519C13.3321 14.9914 13.4209 14.6605 13.3622 14.3215L12.7006 10.4634C12.6725 10.2991 12.7272 10.1315 12.8467 10.0149L15.6498 7.28235Z" fill="#FAAC3D"/>
<path d="M15.6498 7.28235C15.9647 6.97542 16.0759 6.52496 15.9401 6.10621C15.8039 5.68747 15.4492 5.38855 15.0135 5.32512L11.1394 4.7622C10.9744 4.73817 10.8318 4.63469 10.7582 4.48507L9.02615 0.974937C8.83168 0.580543 8.43697 0.335449 7.99708 0.335449C7.55751 0.335449 7.1628 0.580543 6.96833 0.974937L5.23601 4.48539C5.16232 4.63501 5.01943 4.73849 4.85443 4.76252L0.98034 5.32544C0.544938 5.38855 0.189952 5.68779 0.0537881 6.10653C-0.0820549 6.52528 0.0291185 6.97574 0.344056 7.28267L3.1471 10.0149C3.2666 10.1315 3.32139 10.2994 3.2932 10.4634L2.63192 14.3215C2.57329 14.6611 2.66236 14.9914 2.88214 15.2519C3.22367 15.6578 3.81991 15.7815 4.29664 15.531L7.76128 13.7093C7.90609 13.6333 8.08839 13.634 8.23288 13.7093L11.6978 15.531C11.8664 15.6197 12.0461 15.6646 12.2316 15.6646C12.5702 15.6646 12.8913 15.514 13.112 15.2519C13.3321 14.9914 13.4209 14.6605 13.3622 14.3215L12.7006 10.4634C12.6725 10.2991 12.7272 10.1315 12.8467 10.0149L15.6498 7.28235Z" fill="#FAAC3D"/>
</g>
<defs>
<clipPath id="clip0">
<rect width="16" height="16" fill="white"/>
</clipPath>
</defs>
</svg>
