<svg width="16" height="16" viewBox="0 0 16 16" fill="none" xmlns="http://www.w3.org/2000/svg">
<g clip-path="url(#clip0)">
<path d="M11.839 9.1938C11.8078 9.17884 10.6414 8.60445 10.4341 8.52985C10.3495 8.49946 10.2588 8.4698 10.1624 8.4698C10.0049 8.4698 9.87261 8.5483 9.76954 8.70248C9.65302 8.87567 9.30029 9.28798 9.19131 9.41115C9.17707 9.42741 9.15764 9.44684 9.14601 9.44684C9.13557 9.44684 8.95505 9.3725 8.9004 9.34876C7.64912 8.80523 6.69936 7.49817 6.56912 7.27775C6.55053 7.24606 6.54975 7.23167 6.54959 7.23167C6.55416 7.21489 6.59624 7.17271 6.61796 7.15095C6.68149 7.08809 6.75032 7.00523 6.81692 6.92508C6.84845 6.8871 6.88003 6.84908 6.91105 6.81323C7.00767 6.70082 7.05068 6.61354 7.10055 6.51245L7.12668 6.45993C7.24845 6.21801 7.14445 6.01385 7.11084 5.94793C7.08325 5.89276 6.59074 4.70409 6.53837 4.57921C6.41245 4.27785 6.24606 4.13754 6.01484 4.13754C5.99338 4.13754 6.01484 4.13754 5.92487 4.14133C5.81531 4.14596 5.21868 4.2245 4.95489 4.39079C4.67515 4.56715 4.2019 5.12933 4.2019 6.11801C4.2019 7.00783 4.76658 7.84798 5.00902 8.16752C5.01505 8.17557 5.02611 8.19193 5.04216 8.21541C5.97063 9.57136 7.12809 10.5762 8.30144 11.045C9.43105 11.4962 9.96596 11.5483 10.2701 11.5483C10.2701 11.5483 10.2701 11.5483 10.2701 11.5483C10.3979 11.5483 10.5002 11.5383 10.5904 11.5294L10.6477 11.524C11.0379 11.4894 11.8955 11.045 12.0905 10.5029C12.2442 10.076 12.2847 9.60949 12.1825 9.44019C12.1124 9.32508 11.9918 9.26715 11.839 9.1938Z" fill="#4678C5"/>
<path d="M8.14226 0C3.80896 0 0.283557 3.49891 0.283557 7.79964C0.283557 9.19065 0.655816 10.5523 1.36101 11.7439L0.0112451 15.7255C-0.0138978 15.7997 0.0048035 15.8818 0.0597126 15.9377C0.099349 15.9782 0.153115 16 0.208024 16C0.229063 16 0.250258 15.9968 0.270933 15.9902L4.42262 14.671C5.55873 15.278 6.84278 15.5984 8.14231 15.5984C12.4752 15.5984 16.0002 12.0999 16.0002 7.79964C16.0002 3.49891 12.4752 0 8.14226 0ZM8.14226 13.9737C6.91945 13.9737 5.73509 13.6206 4.71701 12.9526C4.68278 12.9301 4.64304 12.9185 4.60304 12.9185C4.58189 12.9185 4.5607 12.9218 4.54008 12.9283L2.46034 13.5894L3.13171 11.6087C3.15343 11.5446 3.14257 11.4739 3.10257 11.4192C2.3273 10.3599 1.91748 9.10831 1.91748 7.79964C1.91748 4.39481 4.70989 1.62473 8.14221 1.62473C11.5741 1.62473 14.3662 4.39481 14.3662 7.79964C14.3663 11.2041 11.5742 13.9737 8.14226 13.9737Z" fill="#4678C5"/>
</g>
<defs>
<clipPath id="clip0">
<rect width="16" height="16" fill="white"/>
</clipPath>
</defs>
</svg>
